<?xml version="1.0" encoding="UTF-8"?>
<svg version="1.1" xmlns="http://www.w3.org/2000/svg" width="16" height="16">
<path d="M0 0 C5.28 0 10.56 0 16 0 C16 5.28 16 10.56 16 16 C10.72 16 5.44 16 0 16 C0 10.72 0 5.44 0 0 Z " fill="#17001E" transform="translate(0,0)"/>
<path d="M0 0 C7.28358209 -0.35820896 7.28358209 -0.35820896 10 1 C11.66130953 4.32261906 11.23735237 7.32103826 11 11 C10 12 10 12 7.49609375 12.09765625 C5.98208984 12.08025391 5.98208984 12.08025391 4.4375 12.0625 C3.42558594 12.05347656 2.41367188 12.04445313 1.37109375 12.03515625 C0.58863281 12.02355469 -0.19382813 12.01195312 -1 12 C-1 11.34 -1 10.68 -1 10 C-0.01 10 0.98 10 2 10 C1.814375 9.2575 1.62875 8.515 1.4375 7.75 C1.00796892 5.05009037 1.14877026 3.55368923 2 1 C1.34 0.67 0.68 0.34 0 0 Z " fill="#27003E" transform="translate(4,1)"/>
<path d="M0 0 C1.32 0 2.64 0 4 0 C4 2.97 4 5.94 4 9 C3.01 9 2.02 9 1 9 C1 9.66 1 10.32 1 11 C4.63 11 8.26 11 12 11 C9.57477793 13.42522207 8.8279321 13.29629254 5.5 13.3125 C4.7059375 13.32925781 3.911875 13.34601562 3.09375 13.36328125 C2.4028125 13.24339844 1.711875 13.12351562 1 13 C-1.70238949 8.94641576 -1.22937614 6.81689896 -1 2 C-0.67 1.34 -0.34 0.68 0 0 Z " fill="#290042" transform="translate(2,2)"/>
<path d="M0 0 C1.32 0 2.64 0 4 0 C3.67 1.98 3.34 3.96 3 6 C4.32 6.66 5.64 7.32 7 8 C7 8.66 7 9.32 7 10 C3.7 10 0.4 10 -3 10 C-3 9.34 -3 8.68 -3 8 C-2.01 8 -1.02 8 0 8 C-0.185625 7.236875 -0.37125 6.47375 -0.5625 5.6875 C-1 3 -1 3 0 0 Z " fill="#604075" transform="translate(6,3)"/>
<path d="M0 0 C2.475 0.495 2.475 0.495 5 1 C5 3.31 5 5.62 5 8 C3.35 8 1.7 8 0 8 C0.66 7.67 1.32 7.34 2 7 C2.65772428 3.97065509 2.65772428 3.97065509 3 1 C2.01 0.67 1.02 0.34 0 0 Z " fill="#4D0D68" transform="translate(7,2)"/>
<path d="M0 0 C1.32 0 2.64 0 4 0 C3.67 1.98 3.34 3.96 3 6 C1.68 5.67 0.36 5.34 -1 5 C-0.67 3.35 -0.34 1.7 0 0 Z " fill="#8C4B9D" transform="translate(6,3)"/>
</svg>
